<svg style="fill: #fff;" id="Capa_1" enable-background="new 0 0 512 512" height="512" viewBox="0 0 512 512" width="512" xmlns="http://www.w3.org/2000/svg"><path d="m151.09 498.64c.84 7.61 7.26 13.36 14.91 13.36h180c7.65 0 14.07-5.75 14.91-13.36l5.14-46.64h-220.1z"/><path d="m142.64 422h226.72l13.46-122h-253.64z"/><path d="m406 210h-134.163c7.035-63.354 58.078-113.622 121.793-119.43-1.07-5.02-1.63-10.23-1.63-15.57 0-4.97.49-9.83 1.42-14.53-59.011 4.472-109.449 40.132-134.844 90.489-29.959-86.234-112.526-150.959-212.576-150.959h-31c-8.284 0-15 6.716-15 15s6.716 15 15 15h31c102.477 0 186.745 79.458 194.429 180h-134.429c-8.284 0-15 6.716-15 15s6.716 15 15 15h16.563l3.307 30h260.26l3.307-30h16.563c8.284 0 15-6.716 15-15s-6.716-15-15-15z"/><path d="m467 30c-24.813 0-45 20.187-45 45s20.187 45 45 45 45-20.187 45-45-20.187-45-45-45z"/></svg>
