<?xml version="1.0" encoding="iso-8859-1"?>
<!-- Generator: Adobe Illustrator 19.0.0, SVG Export Plug-In . SVG Version: 6.00 Build 0)  -->
<svg version="1.1" id="Capa_1" xmlns="http://www.w3.org/2000/svg" xmlns:xlink="http://www.w3.org/1999/xlink" x="0px" y="0px"
	 viewBox="0 0 512 512" style="fill: #E5E5E5;enable-background:new 0 0 512 512;" xml:space="preserve">
<g>
	<g>
		<path d="M476.036,157.022H372.211v159.197h118.825V172.022C491.036,163.738,484.32,157.022,476.036,157.022z"/>
	</g>
</g>
<g>
	<g>
		<path d="M35.964,186.35c-8.284,0-15,6.716-15,15v114.869h118.825V186.35H35.964z"/>
	</g>
</g>
<g>
	<g>
		<path d="M342.211,135.779H169.789v180.44h172.423v-180.44H342.211z M275.376,277.34c0,8.284-6.716,15-15,15s-15-6.716-15-15
			v-72.559l-3.766,2.646c-6.778,4.767-16.133,3.13-20.897-3.648c-4.763-6.777-3.129-16.134,3.648-20.896l14.354-10.087
			c7.138-5.015,16.377-5.631,24.116-1.61s12.545,11.936,12.545,20.656V277.34z"/>
	</g>
</g>
<g>
	<g>
		<path d="M497,346.221h-5.964v-0.002l-470.072,0.002H15c-8.284,0-15,6.716-15,15s6.716,15,15,15h482c8.284,0,15-6.716,15-15
			S505.284,346.221,497,346.221z"/>
	</g>
</g>
<g>
</g>
<g>
</g>
<g>
</g>
<g>
</g>
<g>
</g>
<g>
</g>
<g>
</g>
<g>
</g>
<g>
</g>
<g>
</g>
<g>
</g>
<g>
</g>
<g>
</g>
<g>
</g>
<g>
</g>
</svg>
